<?xml version="1.0" encoding="utf-8"?>
<!-- Generator: Adobe Illustrator 25.2.3, SVG Export Plug-In . SVG Version: 6.00 Build 0)  -->
<svg version="1.1" xmlns="http://www.w3.org/2000/svg" xmlns:xlink="http://www.w3.org/1999/xlink" x="0px" y="0px"
	 viewBox="0 0 1000 1000" style="enable-background:new 0 0 1000 1000;" xml:space="preserve">
<style type="text/css">
	.st0{fill:#212833;}
	.st1{fill:#00A7F5;stroke:#FFFFFF;stroke-width:5;stroke-miterlimit:10;}
	.st2{fill:#00A7F5;}
	.st3{font-family:'Montserrat-Light';}
	.st4{font-size:30.9296px;}
	.st5{letter-spacing:2;}
</style>
<g id="iso">
	<g>
		<path class="st0" d="M254.11,306.37c0,0,14.82-4.68,20.56,9.43c0,0,21.99,24.42,24.39,42.02c0,0,0.91,5.37-4.32,8.28
			c-3.9,2.13-9.22,7.42-12.72,11.7c0,0-11.79,14.84-33.17,14.84c0,0-2.83-0.3-8.82,13.56c-3.04,7.08-11.35,17.74-17.44,25.94
			c-3.7,4.95-8.69,18.12-10.03,22.06c-2.96,8.5-3.83,29.58-0.73,35.57c0,0,9.79,23.16,12.44,33.43c0.17,0.62,4.72,14.09,2.43,33.5
			c-0.22,1.89-1.49,9.26-1.97,13.63c-0.7,6.24-0.47,19.17,1.92,25.06c2.29,5.64,9.18,10.86,11.1,25.55
			c1.94,14.34-2.19,35.07-0.59,47.54c0.9,6.97,4.04,16.93,17.45,23.34c0,0,12.73,3.09,7.01,7.39c0,0-14.67,0.55-23.28-2.61
			c0,0-14.66,1.16-16.58-4.27c0,0,0.04-4.26,1.6-7.72c0,0-3.23-21.33-13.73-35.36c-7.58-10.13-9.22-14.33-5.37-50.62
			c0,0-11.97-7.57-19.05-34.89c-2.07-8.04-5.27-21.9-7.83-32.19c0,0-18.38,38.56-16.81,57.95c0,0,8.75,19.87,9.91,27.43
			c0.98,6.46,0.78,16.88-1.94,26.02c-2.81,9.45,3.21,31.41,5.12,38.85c0,0,4.75,12.84-4.46,12.55c0,0-15.94-2.01-21.04,1.73
			c0,0-18.17,2.24-21.97,0.55c0,0-6.06-2.27,4.14-6.84c0,0,10.85-0.29,14.65-7.13c0,0,4.79-5.72,6.37-6.6
			c0,0-6.67-16.69-13.12-40.83c-2.46-9.3-4.12-30.73-5.63-40.2c-0.96-5.9,2.17-19.75,0.28-25.5c-4.97-15.23-12.63-26.82-0.66-63.41
			c0,0,6.5-15.36,10.21-24.01c5.05-11.79,5.41-33.15,0-50.57c0,0-10.82-15.44-11.46-30.26c0,0,1.29-9.69-14.35-9.42
			c0,0-11.77,2.58-31.21-15.46l-11.48-8.55c0,0-6.08-3.01,0.28-19.72c0,0,11.03-20.99,16.93-27.13l4.13-8.61
			c0,0,3.67-9.56,19.45-5.4c0,0,9.07,1.29,7.63,6.69c0,0,2.23,16.97-3.17,14.85c0,0-2.57-1.41-3.19-4.85c0,0-7.97-0.39-9.74-2.7
			c0,0-4.14,12.99-6.19,15.28c0,0,2.05,18.54,0.29,22.28c0,0,16.58-8.57,27.11,6.44c0,0,20.39-6.14,28.52,4.85
			c0,0,13.87,10.46,16.07-2.14l-0.3-7.59c0,0-1.94-4.57-2.39-7.86c0,0-3.51,2.14-4.64-7.3c0,0-2.06-6.14,2.24-5.14
			c0,0-7.18-18.7,12.42-23.84c0,0,25.48-5.83,23.25,21.99c0,0,9.25-2.17,0,13.99c0,0-2.75-0.62-2.23,0.61
			c0.33,0.72,0.82,8.43,0.82,8.43s0.62,12.14,11.14,10.13c0,0,18.79-13.16,27.87-5.72c0,0,11.96-15.15,28.06-7.12
			c0,0,5.09,0.83,6.54-3.57c0,0-10.06-8.15-7.64-30.43c0,0-0.78-7.86-4.33-6.02l-3.52,0.67c0,0-0.77,5.76-11.14,5.21
			c0,0,0.37,1.99-0.13,2.41c-1.62,1.38-7.08,1.1-8.94,0c-4.25-2.49-4.69-14.75,5.1-17.58L254.11,306.37z"/>
	</g>
</g>
<g id="txt">
	<path class="st1" d="M269.38,587.72l-27.5,7.17l-10.55-33.73h-54.79l-11.37,34.16l-27.5-7.8l64.51-174.58h6.2L269.38,587.72z
		 M223.27,535.01l-18.4-59.67l-19.64,59.67H223.27z"/>
	<path class="st2" d="M372.14,440.97h-41.15v149.28h-26.88V440.97h-41.15v-26.14h109.17V440.97z"/>
	<path class="st2" d="M511.49,590.25h-26.88v-76.96h-61.82v76.96h-26.88V414.83h26.88v72.11h61.82v-72.11h26.88V590.25z"/>
	<path class="st2" d="M639.88,431.49l-66.37,56.93h59.34v25.3h-59.55l65.96,57.77l-17.57,23.4l-96.97-93.4l94.9-91.5L639.88,431.49z
		"/>
	<path class="st2" d="M773.87,592.57h-7.24l-73.19-104.58v102.26h-26.88V412.51h7.24l73.19,103.95V414.62h26.88V592.57z"/>
	<text transform="matrix(1 0 0 1 417.1372 641.0625)" class="st0 st3 st4 st5">TIENDA DEPORTIVA</text>
	<path class="st2" d="M930.18,587.72l-27.5,7.17l-10.55-33.73h-54.79l-11.37,34.16l-27.5-7.8l64.51-174.58h6.2L930.18,587.72z
		 M884.07,535.01l-18.4-59.67l-19.64,59.67H884.07z"/>
</g>
</svg>
