<?xml version="1.0" encoding="utf-8"?>
<!-- Generator: Adobe Illustrator 25.2.3, SVG Export Plug-In . SVG Version: 6.00 Build 0)  -->
<svg version="1.1" xmlns="http://www.w3.org/2000/svg" xmlns:xlink="http://www.w3.org/1999/xlink" x="0px" y="0px"
	 viewBox="0 0 1000 1000" style="enable-background:new 0 0 1000 1000;" xml:space="preserve">
<style type="text/css">
	.st0{fill:#00A7F5;}
	.st1{fill:#212833;}
</style>
<g id="txt">
	<g>
		<path class="st0" d="M279.92,569.81l-22.55,5.77l-8.65-27.13h-44.94l-9.33,27.47l-22.55-6.27l52.91-140.42h5.09L279.92,569.81z
			 M242.1,527.41l-15.09-47.99l-16.11,47.99H242.1z"/>
		<path class="st0" d="M364.2,451.78h-33.75v120.07h-22.05V451.78h-33.75v-21.03h89.54V451.78z"/>
		<path class="st0" d="M478.5,571.84h-22.05v-61.9h-50.71v61.9h-22.05v-141.1h22.05v58h50.71v-58h22.05V571.84z"/>
		<path class="st0" d="M593.31,444.14l-54.44,45.79h48.67v20.35h-48.84l54.1,46.47l-14.42,18.82l-79.53-75.13l77.84-73.6
			L593.31,444.14z"/>
		<path class="st0" d="M703.2,573.71h-5.93l-60.03-84.12v82.25h-22.05V428.88h5.93l60.03,83.61v-81.91h22.05V573.71z"/>
		<path class="st0" d="M831.41,569.81l-22.55,5.77l-8.65-27.13h-44.94l-9.33,27.47l-22.55-6.27l52.91-140.42h5.09L831.41,569.81z
			 M793.59,527.41l-15.09-47.99l-16.11,47.99H793.59z"/>
		<path class="st0" d="M930.79,529.28l-66.48,46.47l-13.06-17.64l45.45-30.87l-59.02-55.12l65.46-44.94l13.74,17.3l-45.11,29.68
			L930.79,529.28z"/>
	</g>
</g>
<g id="lineas">
	
		<rect x="493.69" y="-53.21" transform="matrix(6.123234e-17 -1 1 6.123234e-17 123.0289 876.9711)" class="st1" width="12.61" height="860.36"/>
	
		<rect x="493.69" y="194.97" transform="matrix(6.123234e-17 -1 1 6.123234e-17 -125.1507 1125.1506)" class="st1" width="12.61" height="860.36"/>
</g>
<g id="iso">
	<g>
		<path class="st1" d="M163.41,406.55c0,0,7.46-2.36,10.34,4.74c0,0,11.06,12.28,12.26,21.13c0,0,0.46,2.7-2.17,4.16
			c-1.96,1.07-4.64,3.73-6.4,5.89c0,0-5.93,7.46-16.68,7.46c0,0-1.43-0.15-4.44,6.82c-1.53,3.56-5.71,8.92-8.77,13.05
			c-1.86,2.49-4.37,9.11-5.05,11.09c-1.49,4.28-1.93,14.88-0.37,17.89c0,0,4.92,11.65,6.26,16.81c0.09,0.31,2.38,7.08,1.22,16.85
			c-0.11,0.95-0.75,4.66-0.99,6.85c-0.35,3.14-0.24,9.64,0.97,12.61c1.15,2.84,4.62,5.46,5.58,12.85c0.98,7.21-1.1,17.64-0.3,23.91
			c0.45,3.5,2.03,8.52,8.78,11.74c0,0,6.4,1.55,3.53,3.72c0,0-7.38,0.28-11.71-1.31c0,0-7.38,0.59-8.34-2.15
			c0,0,0.02-2.14,0.81-3.88c0,0-1.62-10.73-6.91-17.78c-3.81-5.09-4.64-7.21-2.7-25.46c0,0-6.02-3.81-9.58-17.55
			c-1.04-4.04-2.65-11.01-3.94-16.19c0,0-9.24,19.39-8.45,29.14c0,0,4.4,9.99,4.98,13.79c0.49,3.25,0.39,8.49-0.97,13.09
			c-1.41,4.75,1.61,15.8,2.58,19.54c0,0,2.39,6.46-2.24,6.31c0,0-8.01-1.01-10.58,0.87c0,0-9.14,1.12-11.05,0.28
			c0,0-3.05-1.14,2.08-3.44c0,0,5.46-0.14,7.37-3.59c0,0,2.41-2.88,3.2-3.32c0,0-3.36-8.39-6.6-20.54
			c-1.24-4.68-2.07-15.46-2.83-20.22c-0.48-2.97,1.09-9.94,0.14-12.83c-2.5-7.66-6.35-13.49-0.33-31.89c0,0,3.27-7.73,5.13-12.07
			c2.54-5.93,2.72-16.67,0-25.43c0,0-5.44-7.77-5.76-15.22c0,0,0.65-4.87-7.22-4.74c0,0-5.92,1.3-15.7-7.78l-5.77-4.3
			c0,0-3.06-1.51,0.14-9.92c0,0,5.55-10.55,8.51-13.64l2.08-4.33c0,0,1.84-4.81,9.78-2.72c0,0,4.56,0.65,3.84,3.37
			c0,0,1.12,8.54-1.6,7.47c0,0-1.29-0.71-1.6-2.44c0,0-4.01-0.19-4.9-1.36c0,0-2.08,6.53-3.11,7.68c0,0,1.03,9.32,0.15,11.2
			c0,0,8.34-4.31,13.64,3.24c0,0,10.26-3.09,14.34,2.44c0,0,6.98,5.26,8.08-1.08l-0.15-3.81c0,0-0.97-2.3-1.2-3.95
			c0,0-1.76,1.08-2.33-3.67c0,0-1.03-3.09,1.13-2.59c0,0-3.61-9.4,6.24-11.99c0,0,12.82-2.93,11.69,11.06c0,0,4.65-1.09,0,7.04
			c0,0-1.38-0.31-1.12,0.3c0.17,0.36,0.41,4.24,0.41,4.24s0.31,6.11,5.6,5.09c0,0,9.45-6.62,14.02-2.88c0,0,6.01-7.62,14.11-3.58
			c0,0,2.56,0.42,3.29-1.8c0,0-5.06-4.1-3.84-15.3c0,0-0.39-3.95-2.18-3.03l-1.77,0.34c0,0-0.39,2.9-5.6,2.62c0,0,0.18,1-0.06,1.21
			c-0.82,0.7-3.56,0.55-4.5,0c-2.14-1.25-2.36-7.42,2.57-8.84L163.41,406.55z"/>
	</g>
</g>
</svg>
